<?xml version="1.0" encoding="UTF-8" standalone="no"?><svg xmlns="http://www.w3.org/2000/svg" xmlns:xlink="http://www.w3.org/1999/xlink" contentStyleType="text/css" height="392px" preserveAspectRatio="none" style="width:611px;height:392px;background:#FFFFFF;" version="1.1" viewBox="0 0 611 392" width="611px" zoomAndPan="magnify"><defs/><g><!--MD5=[42591781c74864aa6bd8b9830e23a81c]
cluster Docker--><g id="cluster_Docker"><path d="M40.4179,29.7975 C50.5368,17.5097 62.0309,15.7931 70.2559,31.7951 C76.9904,19.9735 85.3069,16.3396 95.8908,27.5016 C103.148,9.6968 116.4421,11.5594 126.805,24.365 C134.1737,9.6317 146.3033,10.786 155.5021,22.3693 C164.6796,10.5645 174.826,11.8349 180.0493,26.0935 C186.8674,9.285 200.2619,10.7764 210.8694,21.9144 C218.0873,8.7405 227.583,6.5073 236.9791,19.7625 C246.8194,6 258.3931,9.8787 265.0072,23.1121 C274.1445,8.8572 289.1893,10.2855 297.2566,24.3314 C304.8324,10.6939 313.738,13.2629 322.5235,23.0252 C332.1457,10.5245 344.7075,10.4237 352.2786,25.2579 C362.8823,10.975 372.1028,13.5337 381.1752,26.8606 C389.9801,17.1973 402.9691,16.6855 407.385,31.5504 C418.082,18.7564 432.9523,19.7129 440.7684,34.9779 C442.6612,34.3352 444.0501,35.0932 443.8284,37.2715 C461.312,44.3316 461.5447,58.685 449.2108,70.5654 C463.0803,78.4386 467.1801,90.6372 452.3068,101.3967 C466.8921,111.3196 467.6581,123.1191 450.7837,131.4474 C466.2004,141.2712 464.1273,152.4894 450.9344,162.4523 C464.5863,175.3385 463.5205,187.1739 448.0117,197.638 C459.7302,214.8659 455.9708,228.8194 433.7684,231.9779 C436.6773,232.6438 436.6408,234.9886 434.8798,236.7436 C426.8589,248.15 419.3628,247.5263 410.5108,237.6973 C401.7561,250.1248 387.1745,249.1824 380.736,235.0963 C372.881,251.283 361.6743,251.9733 350.1476,238.94 C344.8245,252.2468 332.7059,251.55 325.1973,241.25 C314.9134,254.0963 304.7954,255.1095 295.4156,240.2772 C287.7071,256.5101 274.1518,256.297 265.9649,240.7202 C260.1679,254.1662 246.8383,258.1764 236.5917,245.777 C227.5156,258.0131 218.6276,257.2625 211.5557,243.8227 C200.1746,260.3523 190.1554,257.3485 180.0468,242.5431 C169.8931,256.3338 157.5359,253.3785 150.5911,239.1675 C143.67,251.0539 132.1884,249.6649 126.4044,237.9997 C118.6673,255.8022 104.1466,253.4946 94.7951,239.6101 C84.818,251.284 70.231,250.4275 65.1341,234.3871 C49.6559,250.8377 35.5362,245.025 29.7684,224.9779 C31.2268,223.5905 33.035,224.0879 33.3668,226.1523 C18.9575,221.7637 14.7853,207.9684 27.6382,198.027 C14.0858,187.9847 12.5788,177.6728 26.1758,166.3761 C6,156.7877 6.6731,141.0637 24.977,130.2002 C13.5108,121.6499 13.7065,109.6389 25.9271,101.8833 C12.2102,91.4088 16.1773,76.5943 31.5186,71.4606 C14.7107,57.6054 12.6736,36.8947 36.7684,27.9779 C38.5317,26.8292 40.3778,27.4901 40.4179,29.7975 " fill="#9DCCE0" style="stroke:#181818;stroke-width:1.0;"/><text fill="#000000" font-family="sans-serif" font-size="14" font-weight="bold" lengthAdjust="spacing" textLength="55" x="207.7684" y="45.973">Docker</text></g><g id="cluster_##808001"><path d="M229.7948,297.1316 C237.082,287.8907 246.5061,288.1012 252.2033,298.9088 C259.6373,288.8335 269.2858,288.6206 276.7037,298.9281 C281.4553,288.5146 291.7951,285.8771 299.1917,296.0369 C306.2353,283.7676 314.6517,282.8018 324.2729,293.1826 C330.5256,283.945 340.7485,283.1539 345.8115,294.4317 C352.1912,282.0063 360.5557,280.8347 369.1195,292.301 C375.4147,280.4603 383.5483,281.5738 390.6144,291.5411 C399.0355,279.6118 406.6554,281.4532 413.6219,292.9685 C419.6362,279.5237 431.388,281.4826 438.118,292.2443 C447.5224,282.4121 454.3911,283.3141 459.6861,296.1535 C466.2789,284.7786 475.5212,281.6811 483.9486,294.2983 C492.3749,283.972 499.3148,285.9478 505.5464,296.5619 C512.4542,287.9899 524.0538,286.9281 528.2968,299.4376 C533.2583,287.6343 545.2337,285.4213 552.4802,297.0826 C567.7248,303.7034 573.6439,320.4692 557.6351,331.7388 C569.0152,344.8382 566.5029,353.1443 550.8243,359.6382 C545.8663,372.5892 536.2741,373.3901 527.5474,363.4745 C522.2459,374.6893 513.5527,373.7467 506.6942,365.1101 C499.9286,377.5321 491.2603,376.647 483.6714,365.9293 C476.4762,377.6821 468.9814,379.4901 459.6945,368.0959 C453.2196,379.3478 445.2994,376.911 438.9218,367.9958 C434.4805,380.6512 423.4122,382.5463 414.3412,373.1583 C406.2764,385.4289 397.4,383.1472 390.5912,371.8905 C384.3266,381.8781 375.4807,379.8476 370.4613,370.5881 C363.0945,382.7682 354.3727,381.9017 346.9544,370.6398 C338.3516,380.6305 328.8639,382.5154 322.2902,368.5506 C314.3651,377.5505 307.9993,375.7276 301.6075,366.7833 C291.4497,379.3304 281.0679,376.8567 275.2916,362.4979 C269.6884,370.7689 259.8411,370.4757 254.9857,361.6117 C248.6345,372.6037 238.4252,372.0899 232.0801,361.6052 C212.2109,359.6308 206.7906,343.4705 220.1102,329.2267 C207.6981,314.2032 210.0927,302.4647 229.7948,297.1316 " style="stroke:#181818;stroke-width:1.0;fill:none;"/></g><!--MD5=[08af8945a84acfe1eabc0963aa87c412]
entity web--><g id="elem_web"><polygon fill="#F1F1F1" points="240.7684,187.9779,250.7684,177.9779,310.7684,177.9779,310.7684,214.2748,300.7684,224.2748,240.7684,224.2748,240.7684,187.9779" style="stroke:#181818;stroke-width:0.5;"/><line style="stroke:#181818;stroke-width:0.5;" x1="300.7684" x2="310.7684" y1="187.9779" y2="177.9779"/><line style="stroke:#181818;stroke-width:0.5;" x1="240.7684" x2="300.7684" y1="187.9779" y2="187.9779"/><line style="stroke:#181818;stroke-width:0.5;" x1="300.7684" x2="300.7684" y1="187.9779" y2="224.2748"/><text fill="#000000" font-family="sans-serif" font-size="14" lengthAdjust="spacing" textLength="30" x="255.7684" y="210.973">web</text></g><!--MD5=[7468467f3b6b392f1d176d828c753b77]
entity db--><g id="elem_db"><polygon fill="#F1F1F1" points="243.2684,64.9779,253.2684,54.9779,302.2684,54.9779,302.2684,91.2748,292.2684,101.2748,243.2684,101.2748,243.2684,64.9779" style="stroke:#181818;stroke-width:0.5;"/><line style="stroke:#181818;stroke-width:0.5;" x1="292.2684" x2="302.2684" y1="64.9779" y2="54.9779"/><line style="stroke:#181818;stroke-width:0.5;" x1="243.2684" x2="292.2684" y1="64.9779" y2="64.9779"/><line style="stroke:#181818;stroke-width:0.5;" x1="292.2684" x2="292.2684" y1="64.9779" y2="101.2748"/><text fill="#000000" font-family="sans-serif" font-size="14" lengthAdjust="spacing" textLength="19" x="258.2684" y="87.973">db</text></g><!--MD5=[18b82e70f4f9737a7037a413025c0620]
entity phpMyAdmin--><g id="elem_phpMyAdmin"><polygon fill="#F1F1F1" points="38.2684,187.9779,48.2684,177.9779,173.2684,177.9779,173.2684,214.2748,163.2684,224.2748,38.2684,224.2748,38.2684,187.9779" style="stroke:#181818;stroke-width:0.5;"/><line style="stroke:#181818;stroke-width:0.5;" x1="163.2684" x2="173.2684" y1="187.9779" y2="177.9779"/><line style="stroke:#181818;stroke-width:0.5;" x1="38.2684" x2="163.2684" y1="187.9779" y2="187.9779"/><line style="stroke:#181818;stroke-width:0.5;" x1="163.2684" x2="163.2684" y1="187.9779" y2="224.2748"/><text fill="#000000" font-family="sans-serif" font-size="14" lengthAdjust="spacing" textLength="95" x="53.2684" y="210.973">phpMyAdmin</text></g><!--MD5=[df72caad19033bb922ab6b65bf40b25f]
entity SQLクライアントソフト--><g id="elem_SQLクライアントソフト"><path d="M366.1983,314.9641 C369.532,308.0665 374.2523,307.0214 379.1951,313.3874 C383.3919,308.086 387.4916,307.8181 391.6498,313.4316 C395.2101,308.3398 398.7272,309.0684 402.0592,313.6767 C405.6721,307.5889 411.0619,306.3187 415.3743,312.944 C417.7237,306.1466 424.0261,305.7976 427.9246,311.3728 C430.3983,305.4902 435.2759,306.0092 438.4972,310.6196 C442.5774,304.781 447.2757,304.1667 451.3238,310.653 C454.8901,304.0053 459.8231,303.6304 463.8644,310.2024 C467.9418,304.1601 472.0027,305.6042 475.4572,310.8427 C478.8075,306.069 483.811,307.0744 485.8919,312.1831 C490.1827,307.499 494.2906,306.2876 497.9793,312.8313 C501.6875,308.1934 507.0559,308.33 509.8579,313.8871 C513.3677,306.8145 517.9716,306.8633 522.3168,313.1054 C526.023,307.0558 532.2368,306.9057 536.0237,313.0144 C543.4911,316.8725 545.4709,321.4377 539.135,328.1359 C543.7342,334.9993 543.0252,340.1888 534.7392,343.3225 C531.977,349.5705 526.7385,349.6487 522.7871,344.5782 C519.3761,350.9914 513.9277,350.1177 510.7384,344.3588 C508.6228,350.3946 502.8686,350.775 499.2483,345.9509 C495.5202,351.5954 490.5663,351.9898 487.1162,345.669 C483.2545,351.4797 478.0992,351.2445 474.042,345.898 C470.9632,349.7024 466.2656,349.5318 463.9534,344.9732 C460.3498,351.8225 453.4627,350.9429 449.8834,344.9467 C446.4659,349.988 442.8093,349.665 439.6548,344.6784 C436.995,349.9002 431.2403,350.5343 427.5544,345.9437 C423.0428,352.8324 418.9254,352.4064 414.6686,345.7022 C409.6505,351.1981 405.1311,351.1796 401.9833,343.852 C399.7112,349.7761 395.7445,349.4781 391.9257,345.4087 C386.7982,350.7296 381.4957,351.158 377.8809,343.7407 C374.3785,349.7774 370.5331,350.2188 366.5471,344.1952 C360.5819,339.6465 358.9977,334.2636 366.6462,329.8087 C358.6222,324.8738 358.6393,320.3693 366.1983,314.9641 " fill="#FFFF00" style="stroke:#181818;stroke-width:0.5;"/><text fill="#000000" font-family="sans-serif" font-size="14" lengthAdjust="spacing" textLength="154" x="372.7684" y="332.973">SQLクライアントソフト</text></g><!--MD5=[97ccaff76e2c68c5bb050ebab81f73c3]
entity ブラウザ--><g id="elem_ブラウザ"><path d="M246.2052,313.5318 C248.7584,307.6633 253.847,307.66 257.2043,312.7227 C260.3668,305.5194 265.6907,306.5428 269.9225,311.6149 C274.0529,305.638 277.7862,306.253 281.617,311.916 C285.0715,307.0937 288.359,307.4527 291.486,312.252 C295.7377,307.2039 299.8213,306.0362 303.8806,312.4598 C307.3312,307.7535 313.2456,308.0319 315.7665,313.5416 C325.6065,314.7883 327.2105,320.5212 322.0376,328.1936 C327.0277,335.4399 326.3643,342.2934 316.1175,343.7359 C314.2158,350.4374 309.2871,351.7058 304.3533,346.8123 C302.005,354.3904 297.118,355.1019 291.5868,350.0228 C288.9224,356.0754 284.7712,356.4862 280.0904,352.2832 C275.1071,356.7076 271.1633,354.3662 269.7826,348.6289 C264.4039,354.6379 259.9888,354.5882 256.446,346.8481 C252.7856,350.6719 248.5617,350.663 246.3833,345.236 C235.5457,344.681 232.6934,337.5603 237.571,328.6538 C232.4473,319.5807 237.0743,314.4659 246.2052,313.5318 " fill="#FFFF00" style="stroke:#181818;stroke-width:0.5;"/><text fill="#000000" font-family="sans-serif" font-size="14" lengthAdjust="spacing" textLength="56" x="251.7684" y="332.973">ブラウザ</text></g><!--MD5=[7f8cb4f31c80578b02bea1f2ba5d290e]
reverse link web to ブラウザ--><g id="link_web_ブラウザ"><path d="M275.8874,229.1539 C276.0134,242.3809 276.2654,258.5119 276.7684,272.9779 C277.1344,283.4877 277.7544,295.1374 278.3354,304.9179 " fill="none" id="web-backto-ブラウザ" style="stroke:#181818;stroke-width:1.0;"/><polygon fill="#181818" points="275.8444,224.0509,271.9217,233.0849,275.8873,229.0507,279.9214,233.0163,275.8444,224.0509" style="stroke:#181818;stroke-width:1.0;"/><text fill="#000000" font-family="sans-serif" font-size="13" lengthAdjust="spacing" textLength="151" x="277.7684" y="269.0448">localhost:{PORT_WEB}</text></g><!--MD5=[ce0fa36060f0ad90e32862b9f0e4c27f]
reverse link phpMyAdmin to ブラウザ--><g id="link_phpMyAdmin_ブラウザ"><path d="M73.1169,227.9809 C59.7194,241.7949 49.663,258.8019 60.7684,272.9779 C82.2007,300.3368 179.1964,315.7169 236.6664,322.5768 " fill="none" id="phpMyAdmin-backto-ブラウザ" style="stroke:#181818;stroke-width:1.0;"/><polygon fill="#181818" points="76.9695,224.1739,67.7566,227.6555,73.4133,227.6886,73.3802,233.3454,76.9695,224.1739" style="stroke:#181818;stroke-width:1.0;"/><text fill="#000000" font-family="sans-serif" font-size="13" lengthAdjust="spacing" textLength="206" x="61.7684" y="269.0448">localhost:{PORT_PHPMYADMIN}</text></g><!--MD5=[617cb39dcae311dd06e35f5c54419525]
reverse link db to SQLクライアントソフト--><g id="link_db_SQLクライアントソフト"><path d="M307.6784,79.5989 C345.2324,82.3199 403.6084,92.9029 433.7684,130.9779 C474.0464,181.8259 463.3504,265.1619 455.1574,304.7517 " fill="none" id="db-backto-SQLクライアントソフト" style="stroke:#181818;stroke-width:1.0;"/><polygon fill="#181818" points="302.2944,79.2519,311.0187,83.8221,307.2841,79.5733,311.5329,75.8387,302.2944,79.2519" style="stroke:#181818;stroke-width:1.0;"/><text fill="#000000" font-family="sans-serif" font-size="13" lengthAdjust="spacing" textLength="140" x="463.7684" y="205.5448">localhost:{PORT_DB}</text></g><!--MD5=[b0a9dd4c88c98be6f87b21844ee9c773]
reverse link db to web--><g id="link_db_web"><path d="M270.3124,106.3119 C269.4984,118.9889 268.9794,134.2569 269.7684,147.9779 C270.3314,157.7769 271.4874,168.5619 272.6364,177.7589 " fill="none" id="db-backto-web" style="stroke:#181818;stroke-width:1.0;"/><polygon fill="#181818" points="270.6764,101.0489,266.0638,109.7508,270.3307,106.0369,274.0446,110.3039,270.6764,101.0489" style="stroke:#181818;stroke-width:1.0;"/><text fill="#000000" font-family="sans-serif" font-size="13" lengthAdjust="spacing" textLength="158" x="270.7684" y="144.0448">{DB_HOST_NAME}:3306</text></g><!--MD5=[0353158ea2c987504b7b609596cede4d]
reverse link db to phpMyAdmin--><g id="link_db_phpMyAdmin"><path d="M237.7024,78.3169 C197.4504,79.6889 132.9774,88.8679 101.7684,130.9779 C91.9802,144.1849 93.814,163.0179 97.6339,177.6719 " fill="none" id="db-backto-phpMyAdmin" style="stroke:#181818;stroke-width:1.0;"/><polygon fill="#181818" points="242.9724,78.1779,233.8693,74.4184,237.9742,78.3107,234.0819,82.4156,242.9724,78.1779" style="stroke:#181818;stroke-width:1.0;"/><text fill="#000000" font-family="sans-serif" font-size="13" lengthAdjust="spacing" textLength="158" x="102.7684" y="144.0448">{DB_HOST_NAME}:3306</text></g><!--MD5=[dc626bed70bab11b2e322f879ddb5e49]
@startuml
cloud Docker #9DCCE0 {
  node web
  node db
  node phpMyAdmin
}

cloud {
  cloud SQLクライアントソフト #FFFF00
  cloud ブラウザ #FFFF00
}
ブラウザ -up-> web: localhost:{PORT_WEB}
ブラウザ -up-> phpMyAdmin: localhost:{PORT_PHPMYADMIN}
SQLクライアントソフト  -up-> db: localhost:{PORT_DB}

web -up-> db: {DB_HOST_NAME}:3306
phpMyAdmin -up-> db: {DB_HOST_NAME}:3306
@enduml

PlantUML version 1.2022.7beta2(Unknown compile time)
(GPL source distribution)
Java Runtime: Java(TM) SE Runtime Environment
JVM: Java HotSpot(TM) 64-Bit Server VM
Default Encoding: UTF-8
Language: en
Country: US
--></g></svg>